<svg width="11" height="11" viewBox="0 0 11 11" fill="none" xmlns="http://www.w3.org/2000/svg">
<path d="M10.6855 1.14304L10.6673 1.13169L8.37022 0L5.89088 3.30578L7.03156 4.82678C6.99743 5.40039 6.75418 5.94158 6.34785 6.3479C5.94153 6.75422 5.40034 6.99746 4.82673 7.03159L3.30575 5.89091L0 8.37019L1.12227 10.6481L1.13172 10.6673L1.1431 10.6855C1.20299 10.782 1.28658 10.8615 1.38591 10.9166C1.48525 10.9716 1.59703 11.0004 1.7106 11H2.30333C3.44539 11 4.57628 10.7751 5.63141 10.338C6.68654 9.90095 7.64525 9.26035 8.45281 8.45279C9.26037 7.64523 9.90096 6.68651 10.338 5.63138C10.7751 4.57625 11 3.44537 11 2.3033V1.71055C11.0004 1.59697 10.9716 1.4852 10.9166 1.38586C10.8615 1.28653 10.782 1.20293 10.6855 1.14304ZM10.1511 2.3033C10.1511 6.6306 6.6306 10.1511 2.30333 10.1511H1.82371L1.07282 8.62677L3.30591 6.95195L4.54917 7.88437H4.69064C5.53743 7.88342 6.34926 7.54662 6.94803 6.94785C7.5468 6.34908 7.88361 5.53725 7.88455 4.69046V4.54899L6.95214 3.30575L8.62677 1.0728L10.1511 1.82382V2.3033Z" fill="#8C8C8C"/>
</svg>
